# xmcd
# Track frame offsets:
# 150
# 13868
# 34515
# 53622
# 71691
# 87948
# 104599
# 123938
# 141594
# 154169
# 171603
# 190671
# 203866
# 218653
# 235403
#
# Disc length: 3494 seconds
# Revision: 0
# Processed by: cddbd v1.5.1PL0 Copyright (c) Steve Scherf et al.
# Submitted via: VisiTrax 2.9.10.228 - For more info visit www.synapsa.com
#
DISCID=d90da40f
DTITLE=Various Artist - CB60323
DYEAR=1900
DGENRE=Karaoke
TTITLE0=Tritt, Travis - Girl's Gone Wild, The
TTITLE1=Cross Canadian - Sick and Tired
TTITLE2=Loveless, Patty - I Wanna Believe
TTITLE3=Gracin, Josh - I Want To Live
TTITLE4=Turner, Josh - What It Ain't
TTITLE5=Turner, Lane - Always Wanting Moore (Breathless)
TTITLE6=Alexander, Jessi - Honeysuckle Sweet
TTITLE7=Otto, James - Sunday Morning and Saturday Night
TTITLE8=Morgan, Craig - Look At Us
TTITLE9=Gill, Vince - In These Last Few Days
TTITLE10=Crow, Sheryl - Light In Your Eyes
TTITLE11=Poe, Michelle - Just One Of The Boys
TTITLE12=Pinmonkey - Let's Kill Saturday Night
TTITLE13=Atkins, Rodney - Someone To Share It With
TTITLE14=Lawson, Shannon - Everybody Wants (Something They Can't
EXTD=
EXTT0=
EXTT1=
EXTT2=
EXTT3=
EXTT4=
EXTT5=
EXTT6=
EXTT7=
EXTT8=
EXTT9=
EXTT10=
EXTT11=
EXTT12=
EXTT13=
EXTT14=
PLAYORDER=
